<svg width="100" height="100" viewBox="0 0 100 100" fill="none" xmlns="http://www.w3.org/2000/svg">
<path d="M85 0C93.2842 0 99.9998 6.71587 100 15V85C100 93.2843 93.2843 100 85 100H15C6.71573 100 0 93.2843 0 85V15C0.000163638 6.71587 6.71583 3.22139e-07 15 0H85ZM48.3691 12.4277C47.2648 12.4279 46.3694 13.3234 46.3691 14.4277V48.8242C42.7305 49.321 39.3362 51.0108 36.7363 53.6562C33.6736 56.773 31.9571 60.9682 31.957 65.3379C31.9571 69.7079 33.6742 73.9037 36.7373 77.0205C39.8004 80.1372 43.9656 81.926 48.335 82.002C48.3418 82.0021 48.3486 82.0019 48.3555 82.002C50.5533 82.0167 52.7328 81.5974 54.7676 80.7666C56.8024 79.9357 58.6535 78.71 60.2129 77.1611C61.7723 75.6122 63.0099 73.7694 63.8545 71.7402C64.699 69.711 65.1337 67.5339 65.1338 65.3359C65.1337 63.1381 64.6989 60.9617 63.8545 58.9326C63.01 56.9034 61.7723 55.0607 60.2129 53.5117C58.6534 51.9627 56.8025 50.7372 54.7676 49.9062C53.3566 49.3301 51.876 48.9514 50.3682 48.7783L50.3691 37.1699H59.6826C60.787 37.1698 61.6825 36.2743 61.6826 35.1699V21.9697C61.6821 20.8656 60.7868 19.9698 59.6826 19.9697H50.3691V14.4277C50.3689 13.3234 49.4735 12.4278 48.3691 12.4277ZM48.4502 52.6709C50.0976 52.6686 51.7303 52.9865 53.2559 53.6094C54.8022 54.2409 56.2085 55.1725 57.3936 56.3496C58.5788 57.5269 59.5202 58.9274 60.1621 60.4697C60.8038 62.0118 61.1338 63.6657 61.1338 65.3359C61.1338 67.0064 60.8039 68.6609 60.1621 70.2031C59.5202 71.7454 58.5787 73.146 57.3936 74.3232C56.2085 75.5002 54.8021 76.4311 53.2559 77.0625C51.8062 77.6544 50.2601 77.9727 48.6963 78.001L48.3828 78.002C45.0699 77.9388 41.9119 76.5805 39.5889 74.2168C37.2612 71.8481 35.9581 68.6589 35.958 65.3379C35.9581 62.0167 37.2619 58.8277 39.5898 56.459C41.9178 54.0903 45.0837 52.7306 48.4043 52.6729C48.4195 52.6726 48.435 52.6715 48.4502 52.6709ZM57.6826 23.9707L57.6816 33.1709H50.3691L50.3682 23.9707H57.6826Z" fill="black"/>
</svg>
